<mxfile host="Electron" agent="Mozilla/5.0 (Windows NT 10.0; Win64; x64) AppleWebKit/537.36 (KHTML, like Gecko) draw.io/28.1.2 Chrome/138.0.7204.243 Electron/37.4.0 Safari/537.36" version="28.1.2">
  <diagram name="Page-1" id="1KIgRtRf9lO7ZxM4lM0z">
    <mxGraphModel dx="1028" dy="595" grid="1" gridSize="10" guides="1" tooltips="1" connect="1" arrows="1" fold="1" page="1" pageScale="1" pageWidth="850" pageHeight="1100" math="0" shadow="0">
      <root>
        <mxCell id="0" />
        <mxCell id="1" parent="0" />
        <mxCell id="qQh2b3t-x9nsXLZie6UN-3" value="" style="edgeStyle=orthogonalEdgeStyle;rounded=0;orthogonalLoop=1;jettySize=auto;html=1;" edge="1" parent="1" source="qQh2b3t-x9nsXLZie6UN-1" target="qQh2b3t-x9nsXLZie6UN-2">
          <mxGeometry relative="1" as="geometry" />
        </mxCell>
        <mxCell id="qQh2b3t-x9nsXLZie6UN-1" value="&lt;font size=&quot;3&quot;&gt;START&lt;/font&gt;" style="ellipse;whiteSpace=wrap;html=1;" vertex="1" parent="1">
          <mxGeometry x="350" y="10" width="120" height="80" as="geometry" />
        </mxCell>
        <mxCell id="qQh2b3t-x9nsXLZie6UN-5" value="" style="edgeStyle=orthogonalEdgeStyle;rounded=0;orthogonalLoop=1;jettySize=auto;html=1;" edge="1" parent="1" source="qQh2b3t-x9nsXLZie6UN-2" target="qQh2b3t-x9nsXLZie6UN-4">
          <mxGeometry relative="1" as="geometry" />
        </mxCell>
        <mxCell id="qQh2b3t-x9nsXLZie6UN-2" value="LIỆT KÊ CÁC CÔNG VIỆC CẦN LÀM&amp;nbsp;" style="whiteSpace=wrap;html=1;" vertex="1" parent="1">
          <mxGeometry x="350" y="180" width="120" height="60" as="geometry" />
        </mxCell>
        <mxCell id="qQh2b3t-x9nsXLZie6UN-7" value="" style="edgeStyle=orthogonalEdgeStyle;rounded=0;orthogonalLoop=1;jettySize=auto;html=1;" edge="1" parent="1" source="qQh2b3t-x9nsXLZie6UN-4" target="qQh2b3t-x9nsXLZie6UN-6">
          <mxGeometry relative="1" as="geometry" />
        </mxCell>
        <mxCell id="qQh2b3t-x9nsXLZie6UN-4" value="CHỌN CÔNG VIỆC LÀM TRƯỚC&amp;nbsp;" style="whiteSpace=wrap;html=1;" vertex="1" parent="1">
          <mxGeometry x="350" y="320" width="120" height="60" as="geometry" />
        </mxCell>
        <mxCell id="qQh2b3t-x9nsXLZie6UN-9" value="" style="edgeStyle=orthogonalEdgeStyle;rounded=0;orthogonalLoop=1;jettySize=auto;html=1;" edge="1" parent="1" source="qQh2b3t-x9nsXLZie6UN-6" target="qQh2b3t-x9nsXLZie6UN-8">
          <mxGeometry relative="1" as="geometry" />
        </mxCell>
        <mxCell id="qQh2b3t-x9nsXLZie6UN-6" value="HOÀN THÀNH CÔNG VIỆC VÀ TÍCH&amp;nbsp;" style="whiteSpace=wrap;html=1;" vertex="1" parent="1">
          <mxGeometry x="350" y="460" width="120" height="60" as="geometry" />
        </mxCell>
        <mxCell id="qQh2b3t-x9nsXLZie6UN-12" style="edgeStyle=orthogonalEdgeStyle;rounded=0;orthogonalLoop=1;jettySize=auto;html=1;" edge="1" parent="1" source="qQh2b3t-x9nsXLZie6UN-8" target="qQh2b3t-x9nsXLZie6UN-14">
          <mxGeometry relative="1" as="geometry">
            <mxPoint x="210" y="760" as="targetPoint" />
          </mxGeometry>
        </mxCell>
        <mxCell id="qQh2b3t-x9nsXLZie6UN-13" value="NO" style="edgeLabel;html=1;align=center;verticalAlign=middle;resizable=0;points=[];" vertex="1" connectable="0" parent="qQh2b3t-x9nsXLZie6UN-12">
          <mxGeometry x="-0.195" y="4" relative="1" as="geometry">
            <mxPoint x="1" as="offset" />
          </mxGeometry>
        </mxCell>
        <mxCell id="qQh2b3t-x9nsXLZie6UN-8" value="KIỂM TRA CÔNG VIỆC NÀO CHƯA XONG&amp;nbsp;" style="rhombus;whiteSpace=wrap;html=1;" vertex="1" parent="1">
          <mxGeometry x="350" y="590" width="120" height="80" as="geometry" />
        </mxCell>
        <mxCell id="qQh2b3t-x9nsXLZie6UN-10" style="edgeStyle=orthogonalEdgeStyle;rounded=0;orthogonalLoop=1;jettySize=auto;html=1;entryX=0.937;entryY=1.01;entryDx=0;entryDy=0;entryPerimeter=0;" edge="1" parent="1" source="qQh2b3t-x9nsXLZie6UN-8" target="qQh2b3t-x9nsXLZie6UN-4">
          <mxGeometry relative="1" as="geometry">
            <Array as="points">
              <mxPoint x="550" y="630" />
              <mxPoint x="550" y="381" />
            </Array>
          </mxGeometry>
        </mxCell>
        <mxCell id="qQh2b3t-x9nsXLZie6UN-11" value="YES" style="edgeLabel;html=1;align=center;verticalAlign=middle;resizable=0;points=[];" vertex="1" connectable="0" parent="qQh2b3t-x9nsXLZie6UN-10">
          <mxGeometry x="-0.8206" relative="1" as="geometry">
            <mxPoint as="offset" />
          </mxGeometry>
        </mxCell>
        <mxCell id="qQh2b3t-x9nsXLZie6UN-15" style="edgeStyle=orthogonalEdgeStyle;rounded=0;orthogonalLoop=1;jettySize=auto;html=1;" edge="1" parent="1" source="qQh2b3t-x9nsXLZie6UN-14" target="qQh2b3t-x9nsXLZie6UN-16">
          <mxGeometry relative="1" as="geometry">
            <mxPoint x="400" y="820" as="targetPoint" />
          </mxGeometry>
        </mxCell>
        <mxCell id="qQh2b3t-x9nsXLZie6UN-14" value="KẾT THÚC CÔNG VIỆC" style="rounded=0;whiteSpace=wrap;html=1;" vertex="1" parent="1">
          <mxGeometry x="120" y="790" width="120" height="60" as="geometry" />
        </mxCell>
        <mxCell id="qQh2b3t-x9nsXLZie6UN-16" value="" style="ellipse;whiteSpace=wrap;html=1;" vertex="1" parent="1">
          <mxGeometry x="340" y="780" width="120" height="80" as="geometry" />
        </mxCell>
      </root>
    </mxGraphModel>
  </diagram>
</mxfile>
